<svg width="40" height="41" viewBox="0 0 40 41" fill="none" xmlns="http://www.w3.org/2000/svg">
<path d="M20 4.16797C16.7861 4.16797 13.6443 5.12101 10.972 6.90659C8.29969 8.69216 6.21689 11.2301 4.98696 14.1994C3.75704 17.1687 3.43524 20.436 4.06225 23.5882C4.68926 26.7404 6.23692 29.6359 8.50952 31.9085C10.7821 34.1811 13.6776 35.7287 16.8298 36.3557C19.982 36.9827 23.2493 36.6609 26.2186 35.431C29.1879 34.2011 31.7258 32.1183 33.5114 29.446C35.297 26.7737 36.25 23.6319 36.25 20.418C36.2455 16.1096 34.5319 11.979 31.4855 8.93251C28.439 5.88603 24.3084 4.17252 20 4.16797ZM21.25 34.1102V24.168H25C25.3315 24.168 25.6495 24.0363 25.8839 23.8019C26.1183 23.5674 26.25 23.2495 26.25 22.918C26.25 22.5864 26.1183 22.2685 25.8839 22.0341C25.6495 21.7997 25.3315 21.668 25 21.668H21.25V17.918C21.25 17.2549 21.5134 16.619 21.9822 16.1502C22.4511 15.6814 23.087 15.418 23.75 15.418H26.25C26.5815 15.418 26.8995 15.2863 27.1339 15.0519C27.3683 14.8174 27.5 14.4995 27.5 14.168C27.5 13.8364 27.3683 13.5185 27.1339 13.2841C26.8995 13.0497 26.5815 12.918 26.25 12.918H23.75C22.4239 12.918 21.1522 13.4448 20.2145 14.3824C19.2768 15.3201 18.75 16.5919 18.75 17.918V21.668H15C14.6685 21.668 14.3505 21.7997 14.1161 22.0341C13.8817 22.2685 13.75 22.5864 13.75 22.918C13.75 23.2495 13.8817 23.5674 14.1161 23.8019C14.3505 24.0363 14.6685 24.168 15 24.168H18.75V34.1102C15.2262 33.7885 11.9621 32.1207 9.63663 29.4538C7.31112 26.7869 6.10325 23.3262 6.26425 19.7914C6.42525 16.2567 7.94274 12.9201 10.5011 10.4756C13.0594 8.03119 16.4616 6.66709 20 6.66709C23.5384 6.66709 26.9406 8.03119 29.499 10.4756C32.0573 12.9201 33.5748 16.2567 33.7358 19.7914C33.8968 23.3262 32.6889 26.7869 30.3634 29.4538C28.0379 32.1207 24.7738 33.7885 21.25 34.1102Z" fill="#1D71BF"/>
</svg>
