<svg width="36" height="28" viewBox="0 0 36 28" fill="none" xmlns="http://www.w3.org/2000/svg">
<path d="M36 14C36 14.3978 35.842 14.7794 35.5607 15.0607C35.2794 15.342 34.8978 15.5 34.5 15.5H1.5C1.10218 15.5 0.720645 15.342 0.43934 15.0607C0.158036 14.7794 0 14.3978 0 14C0 13.6022 0.158036 13.2206 0.43934 12.9393C0.720645 12.658 1.10218 12.5 1.5 12.5H34.5C34.8978 12.5 35.2794 12.658 35.5607 12.9393C35.842 13.2206 36 13.6022 36 14ZM1.5 3.5H34.5C34.8978 3.5 35.2794 3.34196 35.5607 3.06066C35.842 2.77936 36 2.39782 36 2C36 1.60218 35.842 1.22064 35.5607 0.93934C35.2794 0.658036 34.8978 0.5 34.5 0.5H1.5C1.10218 0.5 0.720645 0.658036 0.43934 0.93934C0.158036 1.22064 0 1.60218 0 2C0 2.39782 0.158036 2.77936 0.43934 3.06066C0.720645 3.34196 1.10218 3.5 1.5 3.5ZM34.5 24.5H1.5C1.10218 24.5 0.720645 24.658 0.43934 24.9393C0.158036 25.2206 0 25.6022 0 26C0 26.3978 0.158036 26.7794 0.43934 27.0607C0.720645 27.342 1.10218 27.5 1.5 27.5H34.5C34.8978 27.5 35.2794 27.342 35.5607 27.0607C35.842 26.7794 36 26.3978 36 26C36 25.6022 35.842 25.2206 35.5607 24.9393C35.2794 24.658 34.8978 24.5 34.5 24.5Z" fill="black"/>
</svg>
