<svg width="40" height="41" viewBox="0 0 40 41" fill="none" xmlns="http://www.w3.org/2000/svg">
<path d="M20 12.918C18.5166 12.918 17.0666 13.3578 15.8332 14.1819C14.5999 15.0061 13.6386 16.1774 13.0709 17.5478C12.5032 18.9183 12.3547 20.4263 12.6441 21.8811C12.9335 23.336 13.6478 24.6724 14.6967 25.7213C15.7456 26.7702 17.082 27.4845 18.5368 27.7739C19.9917 28.0632 21.4997 27.9147 22.8701 27.3471C24.2406 26.7794 25.4119 25.8181 26.236 24.5847C27.0601 23.3514 27.5 21.9013 27.5 20.418C27.4979 18.4295 26.7071 16.523 25.301 15.117C23.8949 13.7109 21.9885 12.92 20 12.918ZM20 25.418C19.0111 25.418 18.0444 25.1247 17.2221 24.5753C16.3999 24.0259 15.759 23.245 15.3806 22.3314C15.0022 21.4178 14.9031 20.4124 15.0961 19.4425C15.289 18.4726 15.7652 17.5817 16.4645 16.8824C17.1637 16.1832 18.0546 15.707 19.0245 15.514C19.9945 15.3211 20.9998 15.4201 21.9134 15.7986C22.827 16.177 23.6079 16.8179 24.1573 17.6401C24.7068 18.4624 25 19.4291 25 20.418C25 21.7441 24.4732 23.0158 23.5355 23.9535C22.5979 24.8912 21.3261 25.418 20 25.418ZM27.5 4.16797H12.5C10.1801 4.17045 7.95596 5.09312 6.31556 6.73353C4.67515 8.37393 3.75248 10.5981 3.75 12.918V27.918C3.75248 30.2379 4.67515 32.462 6.31556 34.1024C7.95596 35.7428 10.1801 36.6655 12.5 36.668H27.5C29.8199 36.6655 32.044 35.7428 33.6844 34.1024C35.3249 32.462 36.2475 30.2379 36.25 27.918V12.918C36.2475 10.5981 35.3249 8.37393 33.6844 6.73353C32.044 5.09312 29.8199 4.17045 27.5 4.16797ZM33.75 27.918C33.75 29.5756 33.0915 31.1653 31.9194 32.3374C30.7473 33.5095 29.1576 34.168 27.5 34.168H12.5C10.8424 34.168 9.25269 33.5095 8.08058 32.3374C6.90848 31.1653 6.25 29.5756 6.25 27.918V12.918C6.25 11.2604 6.90848 9.67065 8.08058 8.49855C9.25269 7.32645 10.8424 6.66797 12.5 6.66797H27.5C29.1576 6.66797 30.7473 7.32645 31.9194 8.49855C33.0915 9.67065 33.75 11.2604 33.75 12.918V27.918ZM30 12.293C30 12.6638 29.89 13.0263 29.684 13.3347C29.478 13.643 29.1851 13.8833 28.8425 14.0252C28.4999 14.1672 28.1229 14.2043 27.7592 14.1319C27.3955 14.0596 27.0614 13.881 26.7992 13.6188C26.537 13.3566 26.3584 13.0225 26.286 12.6588C26.2137 12.295 26.2508 11.918 26.3927 11.5754C26.5346 11.2328 26.775 10.94 27.0833 10.734C27.3916 10.5279 27.7542 10.418 28.125 10.418C28.6223 10.418 29.0992 10.6155 29.4508 10.9671C29.8025 11.3188 30 11.7957 30 12.293Z" fill="#1D71BF"/>
</svg>
