<svg width="40" height="41" viewBox="0 0 40 41" fill="none" xmlns="http://www.w3.org/2000/svg">
<path d="M33.75 4.16797H6.25C5.58696 4.16797 4.95107 4.43136 4.48223 4.9002C4.01339 5.36904 3.75 6.00493 3.75 6.66797V34.168C3.75 34.831 4.01339 35.4669 4.48223 35.9357C4.95107 36.4046 5.58696 36.668 6.25 36.668H33.75C34.413 36.668 35.0489 36.4046 35.5178 35.9357C35.9866 35.4669 36.25 34.831 36.25 34.168V6.66797C36.25 6.00493 35.9866 5.36904 35.5178 4.9002C35.0489 4.43136 34.413 4.16797 33.75 4.16797ZM33.75 34.168H6.25V6.66797H33.75V34.168ZM15 17.918V27.918C15 28.2495 14.8683 28.5674 14.6339 28.8019C14.3995 29.0363 14.0815 29.168 13.75 29.168C13.4185 29.168 13.1005 29.0363 12.8661 28.8019C12.6317 28.5674 12.5 28.2495 12.5 27.918V17.918C12.5 17.5864 12.6317 17.2685 12.8661 17.0341C13.1005 16.7997 13.4185 16.668 13.75 16.668C14.0815 16.668 14.3995 16.7997 14.6339 17.0341C14.8683 17.2685 15 17.5864 15 17.918ZM28.75 22.293V27.918C28.75 28.2495 28.6183 28.5674 28.3839 28.8019C28.1495 29.0363 27.8315 29.168 27.5 29.168C27.1685 29.168 26.8505 29.0363 26.6161 28.8019C26.3817 28.5674 26.25 28.2495 26.25 27.918V22.293C26.25 21.4642 25.9208 20.6693 25.3347 20.0833C24.7487 19.4972 23.9538 19.168 23.125 19.168C22.2962 19.168 21.5013 19.4972 20.9153 20.0833C20.3292 20.6693 20 21.4642 20 22.293V27.918C20 28.2495 19.8683 28.5674 19.6339 28.8019C19.3995 29.0363 19.0815 29.168 18.75 29.168C18.4185 29.168 18.1005 29.0363 17.8661 28.8019C17.6317 28.5674 17.5 28.2495 17.5 27.918V17.918C17.5016 17.6118 17.6154 17.3168 17.82 17.089C18.0246 16.8612 18.3057 16.7165 18.61 16.6822C18.9142 16.6479 19.2205 16.7264 19.4707 16.903C19.7208 17.0795 19.8975 17.3417 19.9672 17.6398C20.8128 17.0662 21.7987 16.7337 22.819 16.6782C23.8393 16.6226 24.8554 16.8459 25.7584 17.3243C26.6613 17.8027 27.4169 18.518 27.9439 19.3933C28.471 20.2687 28.7497 21.2712 28.75 22.293ZM15.625 13.543C15.625 13.9138 15.515 14.2763 15.309 14.5847C15.103 14.893 14.8101 15.1333 14.4675 15.2752C14.1249 15.4172 13.7479 15.4543 13.3842 15.3819C13.0205 15.3096 12.6864 15.131 12.4242 14.8688C12.162 14.6066 11.9834 14.2725 11.911 13.9088C11.8387 13.545 11.8758 13.168 12.0177 12.8254C12.1596 12.4828 12.4 12.19 12.7083 11.984C13.0166 11.7779 13.3792 11.668 13.75 11.668C14.2473 11.668 14.7242 11.8655 15.0758 12.2171C15.4275 12.5688 15.625 13.0457 15.625 13.543Z" fill="#1D71BF"/>
</svg>
