<svg width="48" height="48" viewBox="0 0 48 48" fill="none" xmlns="http://www.w3.org/2000/svg">
<path d="M6 12C6 11.6022 6.15804 11.2206 6.43934 10.9393C6.72064 10.658 7.10218 10.5 7.5 10.5H40.5C40.8978 10.5 41.2794 10.658 41.5607 10.9393C41.842 11.2206 42 11.6022 42 12C42 12.3978 41.842 12.7794 41.5607 13.0607C41.2794 13.342 40.8978 13.5 40.5 13.5H7.5C7.10218 13.5 6.72064 13.342 6.43934 13.0607C6.15804 12.7794 6 12.3978 6 12ZM7.5 25.5H18C18.3978 25.5 18.7794 25.342 19.0607 25.0607C19.342 24.7794 19.5 24.3978 19.5 24C19.5 23.6022 19.342 23.2206 19.0607 22.9393C18.7794 22.658 18.3978 22.5 18 22.5H7.5C7.10218 22.5 6.72064 22.658 6.43934 22.9393C6.15804 23.2206 6 23.6022 6 24C6 24.3978 6.15804 24.7794 6.43934 25.0607C6.72064 25.342 7.10218 25.5 7.5 25.5ZM21 34.5H7.5C7.10218 34.5 6.72064 34.658 6.43934 34.9393C6.15804 35.2206 6 35.6022 6 36C6 36.3978 6.15804 36.7794 6.43934 37.0607C6.72064 37.342 7.10218 37.5 7.5 37.5H21C21.3978 37.5 21.7794 37.342 22.0607 37.0607C22.342 36.7794 22.5 36.3978 22.5 36C22.5 35.6022 22.342 35.2206 22.0607 34.9393C21.7794 34.658 21.3978 34.5 21 34.5ZM44.4544 26.9587L40.2319 30.4444L41.5181 35.64C41.5886 35.9265 41.5731 36.2274 41.4735 36.505C41.3739 36.7827 41.1946 37.0249 40.958 37.2012C40.7215 37.3775 40.4382 37.4801 40.1436 37.4963C39.849 37.5124 39.5563 37.4413 39.3019 37.2919L34.5 34.4663L29.6981 37.2919C29.4437 37.4413 29.151 37.5124 28.8564 37.4963C28.5618 37.4801 28.2785 37.3775 28.042 37.2012C27.8055 37.0249 27.6262 36.7827 27.5265 36.505C27.4269 36.2274 27.4114 35.9265 27.4819 35.64L28.7663 30.4444L24.5456 26.9587C24.3155 26.7684 24.1474 26.5137 24.0629 26.2272C23.9784 25.9407 23.9814 25.6355 24.0714 25.3507C24.1614 25.0659 24.3344 24.8145 24.5682 24.6287C24.802 24.4428 25.086 24.331 25.3838 24.3075L30.9788 23.8744L33.1219 18.9056C33.2377 18.6362 33.43 18.4065 33.6749 18.2452C33.9198 18.0839 34.2067 17.9979 34.5 17.9979C34.7933 17.9979 35.0802 18.0839 35.3251 18.2452C35.5701 18.4065 35.7623 18.6362 35.8781 18.9056L38.0213 23.8744L43.6163 24.3075C43.914 24.331 44.198 24.4428 44.4318 24.6287C44.6656 24.8145 44.8386 25.0659 44.9286 25.3507C45.0187 25.6355 45.0216 25.9407 44.9371 26.2272C44.8526 26.5137 44.6845 26.7684 44.4544 26.9587ZM39.6788 27.0112L36.8869 26.7956C36.6145 26.7747 36.3531 26.6798 36.1307 26.5212C35.9083 26.3626 35.7335 26.1463 35.625 25.8956L34.5 23.2856L33.375 25.8956C33.2665 26.1463 33.0917 26.3626 32.8693 26.5212C32.6469 26.6798 32.3855 26.7747 32.1131 26.7956L29.3213 27.0112L31.4044 28.7325C31.6226 28.9123 31.7855 29.1501 31.8744 29.4185C31.9633 29.6868 31.9746 29.9749 31.9069 30.2494L31.2506 32.8969L33.7388 31.4325C33.9694 31.2966 34.2323 31.225 34.5 31.225C34.7677 31.225 35.0306 31.2966 35.2613 31.4325L37.7494 32.8969L37.0931 30.2494C37.0254 29.9749 37.0367 29.6868 37.1256 29.4185C37.2145 29.1501 37.3774 28.9123 37.5956 28.7325L39.6788 27.0112Z" fill="#1d71bf"/>
</svg>
