<svg width="48" height="48" viewBox="0 0 48 48" fill="none" xmlns="http://www.w3.org/2000/svg">
<path d="M44.4994 19.9144L11.5144 7.68751L11.4844 7.67814C10.9534 7.49533 10.3818 7.46521 9.83461 7.59119C9.2874 7.71717 8.78653 7.99421 8.38898 8.39078C7.99143 8.78735 7.71317 9.28754 7.58584 9.83444C7.45851 10.3813 7.48723 10.953 7.66873 11.4844C7.67101 11.4946 7.67414 11.5047 7.6781 11.5144L19.9144 44.4994C20.1153 45.0875 20.4965 45.5974 21.0037 45.9565C21.511 46.3156 22.1185 46.5058 22.74 46.5H22.7962C23.43 46.4952 24.0454 46.2868 24.5518 45.9057C25.0582 45.5246 25.4287 44.9908 25.6087 44.3831L25.62 44.3456L29.715 29.7206L44.34 25.6256L44.3775 25.6144C44.9807 25.4288 45.5099 25.0577 45.89 24.5539C46.2701 24.0501 46.4817 23.4392 46.4945 22.8083C46.5074 22.1773 46.321 21.5584 45.9618 21.0395C45.6025 20.5206 45.0888 20.1282 44.4937 19.9181L44.4994 19.9144ZM28.095 27.0563C27.8473 27.1258 27.6216 27.2579 27.4397 27.4398C27.2578 27.6217 27.1258 27.8473 27.0562 28.095L22.7437 43.5L22.7325 43.4681L10.5 10.5L43.4662 22.7288L43.4962 22.74L28.095 27.0563Z" fill="#1d71bf"/>
</svg>
