<svg width="48" height="48" viewBox="0 0 48 48" fill="none" xmlns="http://www.w3.org/2000/svg">
<path d="M10.1119 6.49125C9.98021 6.34277 9.82032 6.2219 9.64154 6.13566C9.46275 6.04942 9.26863 5.99952 9.07042 5.98886C8.87221 5.9782 8.67386 6.00698 8.48685 6.07354C8.29985 6.1401 8.12792 6.24312 7.98102 6.37661C7.83412 6.51011 7.71518 6.67144 7.63109 6.85124C7.547 7.03105 7.49943 7.22575 7.49115 7.42408C7.48286 7.6224 7.51402 7.8204 7.58282 8.00659C7.65162 8.19278 7.75669 8.36347 7.89194 8.50875L13.0651 14.2013C9.89172 15.5342 7.00859 17.4728 4.57694 19.9088C0.826935 23.6588 0.466935 29.1825 3.69756 33.3469C4.09397 33.8541 4.64303 34.2204 5.26362 34.3916C5.88421 34.5628 6.54341 34.5298 7.14381 34.2975L16.3313 31.0406L16.3857 31.02C16.8492 30.8347 17.2591 30.5367 17.5783 30.153C17.8975 29.7693 18.116 29.312 18.2138 28.8225L19.3201 23.2894C19.8458 23.1081 20.3817 22.9579 20.9251 22.8394L37.8957 41.5088C38.0274 41.6572 38.1873 41.7781 38.3661 41.8643C38.5449 41.9506 38.739 42.0005 38.9372 42.0111C39.1354 42.0218 39.3338 41.993 39.5208 41.9265C39.7078 41.8599 39.8797 41.7569 40.0266 41.6234C40.1735 41.4899 40.2924 41.3286 40.3765 41.1488C40.4606 40.969 40.5082 40.7743 40.5165 40.5759C40.5248 40.3776 40.4936 40.1796 40.4248 39.9934C40.356 39.8072 40.2509 39.6365 40.1157 39.4913L10.1119 6.49125ZM18.3057 20.4638C17.8172 20.6378 17.3821 20.9356 17.043 21.328C16.7038 21.7203 16.4722 22.1939 16.3707 22.7025L15.2644 28.2338L6.11819 31.4775C6.09944 31.4775 6.08631 31.5019 6.06756 31.5094C3.75569 28.5281 4.00506 24.7181 6.69756 22.0294C9.11108 19.6151 12.0199 17.7534 15.2232 16.5731L18.6544 20.3494C18.5382 20.3869 18.4219 20.4225 18.3057 20.4638ZM44.3026 33.3469C43.9062 33.8541 43.3571 34.2204 42.7365 34.3916C42.1159 34.5628 41.4567 34.5298 40.8563 34.2975L39.1219 33.6825C38.9363 33.6166 38.7654 33.5148 38.6191 33.3829C38.4728 33.251 38.3539 33.0916 38.2692 32.9138C38.0981 32.5546 38.0767 32.1421 38.2098 31.7672C38.2756 31.5815 38.3774 31.4107 38.5093 31.2644C38.6412 31.118 38.8006 30.9991 38.9785 30.9144C39.3377 30.7434 39.7501 30.722 40.1251 30.855L41.8819 31.4775L41.9382 31.5C44.2444 28.5281 44.0007 24.7181 41.3026 22.0294C36.4913 17.2181 29.7001 14.6663 22.6744 15.0338C22.4775 15.044 22.2804 15.0153 22.0945 14.9494C21.9086 14.8834 21.7375 14.7815 21.591 14.6494C21.4445 14.5174 21.3254 14.3577 21.2406 14.1797C21.1558 14.0016 21.1068 13.8085 21.0966 13.6116C21.0864 13.4146 21.1151 13.2175 21.181 13.0316C21.247 12.8457 21.3489 12.6746 21.4809 12.5281C21.613 12.3816 21.7726 12.2625 21.9507 12.1777C22.1288 12.0929 22.3218 12.044 22.5188 12.0338C30.3938 11.6231 38.0119 14.49 43.4232 19.9088C47.1713 23.6569 47.5332 29.1825 44.3026 33.3469Z" fill="#1d71bf"/>
</svg>
